<svg xmlns="http://www.w3.org/2000/svg" viewBox="0 0 120 40" width="120" height="40">
  <defs>
    <style>
      .logo-text { 
        font-family: 'Arial', sans-serif; 
        font-weight: bold; 
        fill: #A8B5A3; 
        text-anchor: middle;
      }
      .logo-element { fill: #A8B5A3; }
    </style>
  </defs>
  
  <!-- Left book -->
  <g class="logo-element">
    <path d="M10 8 L10 28 L22 28 L22 26 L24 26 L24 8 Z" />
    <rect x="11" y="9" width="1" height="16" fill="#fff" opacity="0.3"/>
  </g>
  
  <!-- Right book -->
  <g class="logo-element">
    <path d="M110 8 L98 8 L98 26 L100 26 L100 28 L110 28 Z" />
    <rect x="108" y="9" width="1" height="16" fill="#fff" opacity="0.3"/>
  </g>
  
  <!-- Center - Person reading -->
  <g class="logo-element">
    <!-- Head -->
    <circle cx="60" cy="12" r="8"/>
    <!-- Body -->
    <path d="M48 20 Q48 18 52 18 L68 18 Q72 18 72 20 L72 28 Q72 30 68 30 L52 30 Q48 30 48 28 Z"/>
    <!-- Book in hands -->
    <rect x="38" y="22" width="44" height="12" rx="1" fill="#fff"/>
    <line x1="60" y1="22" x2="60" y2="34" stroke="#A8B5A3" stroke-width="1"/>
  </g>
  
  <!-- Text is omitted for navbar version to keep it compact -->
</svg>